<?xml version="1.0" encoding="UTF-8"?>
<svg id="Layer_1" xmlns="http://www.w3.org/2000/svg" version="1.1" viewBox="0 0 1000 655.06">
  <!-- Generator: Adobe Illustrator 30.1.0, SVG Export Plug-In . SVG Version: 2.1.1 Build 136)  -->
  <path d="M499.51,178.9c-14.19-5.92-27.91-10.9-42.92-12.81-22.82-2.9-45.79-2.86-67.76,2.79l-34.17,8.79c18.3-11.1,39.72-13.42,60.8-15.47,27.59-2.69,66.14,1.59,89.82,17.4l-2.21,1.81c-.62.5-2.55-2.08-3.56-2.51Z"/>
  <path d="M325.27,310.59c-28.41-12.49-37.26-16.48-66.59-20.97-14.95-2.29-30.4-3.1-44.94.06-4.34.94-7.9,1.44-13.76,1.28-2.04-1.32,19.73-5.28,21.09-5.27,11.45.03,22.26-.55,33.55.57,21.58,2.15,37.76,6.66,58.42,15.4,4.88,2.07,8.92,5.52,12.24,8.93Z"/>
  <path d="M346.1,277.05c-1.05,6.31-.28,6.8-2.98,9.72l-1.88-20.88c-1.78-19.72,1.44-37.23,2.16-58.15.14-4.16.28-8.4,4.63-11.13-2.04,10.3-1.21,21.04-2.58,32.14l-1.18,9.6-.34,37.74c1.93.85,2.52,1.11,2.17.96Z"/>
  <path d="M345.12,382.86c-5.76-15.01-.34-29.1-3.6-43.27-.31-1.36-.52-3.04-.59-4.53l-.21-4.38c-.04-.91,2.17-2.02,2.64-2.14l1.76,18.89v35.43Z"/>
  <path d="M344.2,322c-1,3.11-1.49,3.91-1.5.87-5.74-1.32-5.93-5.6-4.7-9.12.84-2.42,5.8-5.8,8.07-4.12,4.21,3.11,3.12,10.29-1.87,12.37ZM339.91,318.6c.75,1.93,5.25.68,5.84-1.24.4-1.33-.35-3.39-1.66-5.79-3.23,1.72-5.27,4.19-4.17,7.03Z"/>
  <path d="M341.93,530.21c-3.08-16.26-2.47-32.89-2.14-51l1.19-66.62c.02-1.11.65-3.05.75-3.45.16-.6,2.05-.23,2.57.39-3.34,41.85-.09,76.87-2.36,120.67Z"/>
  <path d="M111.61,497.49c-1.02.31-3.38,2.83-3.95,2.05-.6-.82-2.73-3.75-1.85-2.54l48.22-16.68,6.98-3.45c3.22-1.59,7.06-2.56,9.96-4.01l10.89-5.49.94-12.18c.05-.59-2.72-2.18-2.16-2.37s2.82-1.64,2.9-2.23l2.44-18.06,3.31-18.56-13.4,6.19c-11.64,5.38-13.6,10.66-19.16,8.1,11.04-6.62,21.68-12.37,34.11-17.83l4.72-12.35c.16-.43-1.32-2.4-.88-2.53.64-.18,1.48-.4,1.92-.46s1.11,2.33.92,2.92c-2.49,7.89-6.62,21.76-7.83,31.15-.48,3.66-1.27,5.3-1.59,8.82l-2.07,22.32c-1.26,13.52-1.5,27.05.24,40.67.88,6.88,1.05,13.92,2.8,20.74l3.94,15.31c-1.86-1.2-4.3-4.89-4.75-7.1l-2.75-13.51c-4.15-20.44-3.22-24.91-3.59-46.33l-21.68,10.21c-13.44,6.33-27.61,10.76-41.89,15.14l-6.74,2.07Z"/>
  <path d="M189.44,363.82c-.73-.62-4.72-.87-4.37-.81-3.32-4.49-8.67-7.78-14.05-9.46-3.55-1.1-6.27-7.13-11.57-4.13l2.01-4.05c20.89,9.07,29.66,16.92,46.56,29.69.62.47,1.58,1.89,1.86,2.45s-2.15,1.85-2.69,1.39l-17.74-15.08Z"/>
  <path d="M734.87,560.47c5.71-.93,11.77-.49,16.78-1.62l10.44-2.34c18.35-4.11,21.46-5.96,38.36-14,12.14,4.96,23.75,7.86,36.3,9.64,23.45,3.33,37.49,3.69,60.4-2.94,37.41-10.82,55.9-32.09,71.24-66.32,2.43-5.41,3.41-12.09,5.18-16.43,7.49-18.43,7.23-43.83,5.64-63.53-1.45-17.94-5.91-34.58-18.81-48.44l-10.07-10.82c-.22-.24-2.68.46-2.69.48-.01.04-.02-1.71-.03-2.61-.02-1.53-3.85-2.32-4.83-3.49-3.59-4.28-10.13-7.04-13.79-9.39-11.4-7.31-23.4-10.64-35.83-14.1s-23.55-5.29-36.31-5.16l-25.41.26-2.48,7.04,7.73-.86c1.28-.14,3.12-.63,3.56.12l2.1,3.53c-1.99-.38-3.54-1.23-4.34-.69l-4.4,2.9-1.85-1.24c-.48-.32-2.12.5-2.71.53-8.36.42-27.29,2.77-34.66,5.27l-7.69,2.61c-3.48,1.18-14.95,6.98-19.64,9.82l-1.33-2.41,5.96-3.95-8.5-11.07-21.46,22.27c1.02,3.72,2.2,10.65.36,13.62l-4.83,7.77,12.9,1.82c1.44-2.06,2.51-3.83,2.13.12l18.82,5.09,18.37-17.72,2.43,3.06-5.48,5.49c-3.97,1.87-7.99,5.25-11.67,9.7,3.28,2.53,6.68,3.77,11.68,5.39,5.62-4.43,10.8-10.78,17.32-14.94,11.65-7.44,24.03-13.65,37.44-16.73,3.74-.86,6.26-1.43,8.14-3.6l2.38,4.25-2.38,2.32c-.35.34-.99-.66-1.82-1.48-22.08,5.71-31.56,9.6-48.46,23.07-4.12,3.28-10.43,4.55-9.97,12.01l-9.61-3.62c-.61-.23-3.17,0-3.83.02s-.61-.98-1.14-2.69l-16.1-4.29c-14.07-3.75-28.61-4.83-43.07-2.38-11.45,1.93-11.59.79-26.28,4.67-11.42,3.01-11.96,1.67-24.95,7.45-2.39,1.06-4.26,1.79-6.5,2.51l-8.74,2.83c-.59,1.97-.83.95-1.14-1.52,23.56-11.47,48.46-16.9,74.95-20.41l1.21-20.59-19.98-30.23c-.43-.65.55-2.65,1.46-3.48l21.21,32.46c2.75,7.76-4.3,23.02,3.14,22.47,1.13-.08,4.09-.97,4.57-1.95l6.18-12.67c-.77-2.64-2.6-7.75-1.06-9.29,8.18-8.2,16.39-16.28,22.78-25.47-1.71-15.18,2.96-23.62,4.36-42.11.57-7.47.39-14.08,2.41-20.9,1.33,16.33-1.86,38.39-4.27,54.93-1.11,7.66,2.89,16.98,9.12,21.28,1.93.92,7.41-1.68,7.69-3.23-1.23-6.16-1.09-12.57.47-18.8,4.73-18.91,10.12-37.16,12.56-56.45.38-3.05.56-10.68,2.16-17.04l-2.76,4.43c-.55.89-4.13,1.31-5.54.99l-48.58-10.86-37.45-8.06c-3.63-.78-7.99-.04-14.23-2.15,7.72,17.16,19.41,34.89,15.82,55.34-4.39,25.04-7.37,48.96-10.07,74.48-7.25,2.71,5.3-65.41,6.29-70.49,2.38-12.19.99-23.83-4.32-35.12-9.63-20.47-13.2-32.54-39.58-39.58,4.97-7.9,21.98,6.63,28.45,10.53,9.15,5.52,24.46,4.57,33.93,6.71l72.99,16.56c3.59-3.56,3.02-8.11,2.39-12.88l-2.15-16.44c-.25-1.9-3.36-5.67-4.94-6.8l-14.13-10.13c-1.03-.74-2.18-3.75-1.72-4.85s3.61-2.18,4.78-1.88l12.89,3.32-15.47-15.85c-.89-.91-1.56-5.57-.44-5.88s2.88-.58,4.8-.86c.31-1.66.72-3.95,1.2-5.47.64-2.02,5.76-1.64,7.23-.59l4.98,3.54c-3.47-6.11-4.56-13.18,1.84-15.7,10.06,6.85,18.01,15.52,26.78,25.59l22.93-54.87-59.99-14.24c-14.95-3.55-29.19-6.12-44.43-8.56l-13.84,48.51-22.97,74.4c2.72-30.79,14.89-58.3,23.08-87.77l9.37-33.73c.23-.81-1.01-3.57-1.37-3.03-5.67,8.54-28.13,101.6-37.09,119.32,3.6-28.05,14.5-53.5,21.1-80.38,3.34-13.61,7.73-26.36,11.92-40.17l-29.92-11.1-65.13-24.32c-1.26-.47-2.64-1.55-3-1.87-.61-.54.91-2.94,2.35-2.42l55.8,20.49,40.35,15.31c8.31-13.11,21.33-18.66,36.04-20.1,2.48-12.26,10.27-9.58,18.07-13.8.6-3.26,1.12-8.71,2.85-11,1.86-2.46,7.08-4.92,10.08-4.1,7.13,1.95,6.4,8.74,5.12,14.23l5.1,1.56c7.17,2.19-4.5,16.05-4.65,16.45-1.9,5.13-2.57,8.73-8,11.73,6.52,5.4,9.96,13.25,11.96,21.11l34.52,8.89c1.95.5,6.32,4.12,5.67,5.78l-22.46,57.33c11.04,14.5,1.38,36.57,2.4,63.38.19,5.01,4.03,10.01-.69,14.56l2.39,5.25,3.19,27.14c.82,6.97,1.31,13.28,1.35,20.64,24.34-3.37,47.67-.07,70.83,6.92,25.41,7.67,46.76,20.89,63.37,41.89,7.51,9.5,12.51,20.92,14.62,33.41,4.03,23.89,4.65,48.35-1.36,71.92-11.11,43.6-36.47,79.75-81.09,91.48l6.8,9.58c1.04,1.46-3.84,3.69-5.72,3.77l-19.44.85-101.16.74-57.31-.05-166.03-.15c-6.55,17.38,1.39,34.5-19.39,42.9-11.37,4.6-21.45,10.7-31.04,18.33-11.25,8.95-26.37,10.22-39.22,4.16-2.33-1.1-4.65-3.89-4.91-6.2,13.13,8.7,29.17,9.71,41.65-.39,10.38-8.4,21.35-14.89,33.88-20.12,17.26-7.21,7.77-19.72,14.88-40.65l-5.69.2c-2.1.07,1.79-18.81-9.97-21.82-6.14-1.57-15.66,2.59-19.46,7.66l-20.16,26.91-25.45,26.55c-10.49,10.94-9.73,22.01-12.57,15.8,1.21-7.63,5.84-14.08,11.52-19.6,11.16-10.84,21.68-21.29,31.01-35.01l-230.24-.37h-18.17s-74.13.31-74.13.31l-79.97-.71c3.55-7.07,6.87-9.94,11.42-14.74-56.14-22.99-88.07-57.99-92.47-120.15-1.28-18.09.33-35.37,8.63-51.62,9.48-18.58,22.3-35.85,39.49-48.01,21.63-15.29,68.95-23.47,95.94-17.51-7.49-27.82-3.86-56.37,8.39-82.33,8.33-17.66,22.1-30.86,37.26-42.84,30.1-23.78,73.94-32.75,111.69-23.8-1.56-.37,48.95,13.22,33.93,13.26-.52,0-1.39-.01-1.97-.13l-6.8-1.36c-2.89-3.16-20.18-7.61-25.15-8.56l-8.32-1.58c-13.81-2.63-28.36-2.2-42.55-.28-14.88,2.01-28.94,7.37-42.08,13.75-7.8,3.79-13.92,9.26-20.72,14.37-3.42,2.58-6.12,6.17-9.09,8.95-13.78,12.89-24.72,27.28-29.79,45.99-4.69,17.29-7.15,34.87-3.97,52.47l2.25,12.45c42.06,9.15,76.48,21.66,103.97,56.57l26.01.88c.49.02,2.37-.61,2.34-.95-.04-.51.57.47,1.46,1.79,21.59,6.08,26.79,4.84,46.17,16.62l15.41-8.91,8.43-2.44c3.26-.94,4.92-1.6,8.5-3.35-1.35-2.97-.72-1.57.29.63,6.58-1.06,13.18-2.94,19.89-3.59l17.44-1.69c.28-2.83.88-1.82,1.96.31,13.45-.35,26.32,2.17,38.26,7.65,8.39-1.57,12-9.94,16.66-15.78,11.65-14.59,24.77-27.17,38.84-39.27l12.25-10.54-8.87,1.29c1.29-1.49,4.09-4.42,5.91-4.7l10.04-1.59c4.89-4.38,9.75-8.68,14.89-12.55l14.52-10.94c.58-.44,3.26-.66,3.08,0s-.75,2.74-1.41,3.26l-22.27,17.23-37.85,32.36c-8.52,7.28-15.83,14.88-23.38,24.26,16.05,2.3,28.05,7.1,41.44,13.05,21.94,9.74,41,21.58,57.64,40.82,17.52-36.06,27.84-69.51,46.67-104.49l2.08-.23c4.2-.47-17.74,38.77-18.67,45.72,12.23-8.51,41.65-27.75,49.74-36.35,10.44-11.09,12.08-29.06,26.77-37.98-32.36,57.79-17.54,34.45-58.5,65.88l-21.35,16.38c-2.07,1.81-3.71,8.13-4.25,10.05l3.38,6.27c13.51-2.25,29.34-1.1,42.86,3.78.52.54.83,1.9.48,2.49-.6,1.02-3.95,2.78-3.26.44-13.16-5.2-27.74-5.77-42.78-3.32l-1.03,15.65c-.75,2.4-1.35,5.73-1.99,9.41l-6.18,35.53-3.36,20.34-2.68,19.62-2.53,13.79-2.61,13.41-2.55,13.14-2.06,8.44-14.21,13.96c-2.41,2.37-2.59,9.73-3.03,13.98l10.65.24c1.04.02,2.53.82,3.48.92s2.87-1.15,3.49-1.47c4.17,3.14,10.26,1.35,15.28.76,6.7-.79,13.78-1.19,20.83-3.27,18.02-5.32,27.64-7.17,41.26-20.99,5.89,11.13,21.22,17.84,30.94,18.93,2.5.28,5.94,2.01,8.25,2.48,13.83,2.85,29.26,5.53,44.25,3.08ZM803.05,250.33c.58-3.99,1.31-7.8-.11-8.47s-4.4-1.82-5.1-1.94c-.34,3.63-.62,6.7-.24,8.4.34,1.57,4.9,2.91,5.45,2.02ZM821.97,241.91c-.93-1.5-5.76-1.55-6.83-.4-5.65,6.06-2.31,13.05-.09,13.13,2.65.09,6.23-1.88,7.38-3.71s.94-6.77-.46-9.02ZM810.12,241.85c-.6-.16-3.45,2.62-3.32,3.85l.74,6.94,2.58-10.79ZM460.45,470.8l12.28-19.58,17.83-29.87c1.46-2.44,1.99-4.74,1.87-7.17.47.29,3.44-2.47,2.28-3.34-6.55-4.9-17.9-2.01-22.35,6.93l-5.55,11.16c-6.62,13.3-1.14,14.11-15.54,19.14-6.54,2.28-12.7,4.41-18.91,7.04l-22.94,9.73c-4.39,1.86-11.67,4.19-16.17,4.18l-25.18-.08-10.55-6.12c-3.33-1.93-7.18-4.73-7.52-7.53-1.42-11.69,15.56-23.88,25.86-28.02,13.28-5.34,24.95-12.5,37.21-19.93l13.67-8.28c9.1-5.52,16.4-11.35,24.7-19.82-16.7-7.97-41.59-7.48-58.16-4.58l-7.41,1.3c-5.58.98-11.49,2.33-16.81,4.24l-10.15,3.64c-5.41,1.94-10.01,4.73-13.52,9.1-3.54,1.48-7.04-3.64-10.58-5.45-17.31-8.85-41.52-13.99-60.92-14.38-19.59-.39-38.47.5-57.12,7.86-3.92,1.55-7.72,4.86-12.78,3.38,9.67-7.68,21.8-9.49,33.33-12.5l-5.31-10.59c4.2,2.66,6.07,5.17,8.9,9.25l21.8-.54c-8.83-11.32-18.6-19.68-29.5-27.84-2.06,3.25-2.06,1.78-2.56-.98-15.88-9.83-32.17-15.7-49.97-20.47-22.47-6.02-45.89-8.18-69.02-3.28-2.71.57-4.52,1.44-7.81,1.3l-3.53,2.79c-5.01-2.04-10.1,1.02-14.37,2.28-11.56,3.41-20.2,9.68-28.73,17.42-14.87,13.5-26.56,30.11-33.38,49.08-2.51,6.99-3.31,14.03-3.6,21.11-.15,3.58-1.91,8.29.86,11.71-.55.95-1.53,2.45-1.2,3.15l.92,1.99c-1.48,13.75,3.59,35.54,9.84,49.07l4.06,8.79c4.12,8.91,10.17,15.55,16.56,22.74,9.21,10.36,20.4,18.26,32.35,25.8,2.19,1.38,5.79,2.36,7.6,3.44,14.45,8.59,24.18,13.8,42.18,14l8.96.1c18.54.21,37.19-1.58,55.6-6.48,5.86,6.27,13.42,7.23,20.26,9.69,17.86,6.43,35.69,8.45,54.13,7.1,28.52-2.1,10.36-.94,28.7-4.74,13.11-2.72,27.79-5.79,37.62-15.95,4.13-4.27,8.32-1.45,12.23,2.06,8.94,8.03,18.69,9.05,28.11,12.02,13.74,4.33,28.23,3.31,41.68,4.51,6.84.61,13.16,1.23,19.74-.09l25.81-5.18c9.33-1.87,17.75-5.63,25.43-10.7-4.48-2.48-8.05-3.98-10.95-6.02l-15.75-11.07c-3.53-2.48-7.41-8.43-10.47-11.22-.75.11-3.38.72-2.98.39,3.35-2.74-6.53-11.16-6.63-20.41l15.55-25.28ZM502.1,391.3l20.44-11.64c-14.86-8.26-28.78-14.06-45.03-15.77-1.1-.12-3.45-.07-3.47.78l-.09,3.03c13.09.87,24.89,9.59,28.16,23.61ZM498.7,504.89c19.08,5.55,37.88,10.3,56.24,17.93,5.32,2.21,10.08,4.05,16.14,5.89l8.55-45.62,8.04-47.8c3.17-18.86,6.55-36.37,7.78-56.25l-17.98,38.89-75.76-5.8-29.51,47.99-21.17,33.68c16.54,2.79,31.81,6.47,47.67,11.09ZM522.21,410.92l48.37,3.27c-11.81-14.22-26.14-24.03-42.88-32.76-13.52,7.09-25.63,14.1-38.72,23.44,10.87,3.17,21.19,5.23,33.24,6.05ZM411.21,460.47l25.97-10.77c7.16-2.97,15.29-5.36,22.01-8.68l7.39-19.35c-20.26,4.62.66-17.01-17.55-22.88-3.45-1.11-9.08-2.03-12.51-2.03l-22.6,14.14c-11.62,7.27-22.73,13.9-35.51,19.11-9.63,3.92-17.76,10.32-23.63,18.68-8.25,11.74,28.43,23.4,56.43,11.79ZM512.06,549.87l16.39-32.72c-7.74-1.7-78.51-23.75-78.3-17.72.04,1.1.52,3.78,1.23,4.81,14.57,20.91,38.68,36.48,60.67,45.63ZM569.24,532l-6.09-2.06-1.92,9.44,8.01-7.37Z"/>
  <path d="M652.9,525.63c-5.16-4.43-.86-10.14-.57-15.01l1.69-29.37c.51-8.89.53-25.02.13-33.82l-1.44-31.71c-.08-1.81-1.7-5.61-2.01-7.13l-1.21-3.54c-.37-1.07,3.38-2.57,4.06-1.99-2.23,3.03,1.37,5.75,1.52,8.08l2.31,35.08c.77,11.73,1.16,23.48.17,35.12l-2.4,28.25-2.25,16.05Z"/>
  <path d="M449.99,306c-23.8-2.89-55.61-2.02-78.78,2.54-3.89.76-7.22,3.22-11.74.74l13.19-3.48c18.81-4.97,62.4-4.72,82.37-2.37,10.35,1.22,20.69,1.33,29.66,6.79l-34.69-4.22Z"/>
  <rect x="453.31" y="237.15" width="99.86" height="3.39" transform="translate(263.27 741.55) rotate(-89.87)"/>
  <path d="M813.23,501.76c11.77,11.78,28.59,19.78,42.1,23.4l16.64,4.46c-3.17,3-7.21,2.23-11.1,1.09-19.9-5.79-32.52-10.85-48.76-26.02l-6.45,22.39c.2,1.53.31,2.8-.11,3.39-.87,1.25-2.8,1.83-4.82.83,8.58-22.35,12.11-44.9,11.15-68.31-.33-8.02-.3-15.19-1.71-22.93l-2.3-12.66c-.1-.54-2.72-1.81-3.26-1.74,5.2-.6-2.79-12.14-1.8-19.28,7.43,5.89-2.9,5.44,11.67,12.56l9.91,4.84c22.32,10.91,24.59,3.87,32.23,13.03-16.84-2.79-32.11-9.38-47.5-17.01l1.67,5.21,2.46,15.09c3.03,18.64,1.45,36.76.35,55.29l-.38,6.36Z"/>
  <path d="M840.06,482c8.01,4.68,15.51,7.3,24.27,11.42-2.35,3.25-19.04-5.18-21.1-6.19-12.7-6.26-12.28-9.89-19.05-9.74,0,0,1.32-1.75,1.85-2.45s1.97-.07,3.18.63l10.84,6.33Z"/>
  <path d="M504.14,322.2l-8.39-8.22c1.18-2.37,4.77-4.37,7.03-4.68,3.18-.44,7.86,2.99,6.02,6.48-.94,1.68-3.04,4.21-4.66,6.42ZM506.13,314.53c0-1.7-1.38-3.07-3.07-3.07s-3.07,1.38-3.07,3.07,1.38,3.07,3.07,3.07,3.07-1.38,3.07-3.07Z"/>
  <path d="M775.37,292.44c1.57-6.82,6.04-13.49,13.03-18.1-3.52,6.32-7.39,12.04-13.03,18.1Z"/>
  <path d="M565.79,281.3c-7.44-2.44,8.08-10.52,7.29-14.48-9.4,4.03-17.7,10.42-27.1,6.37-5.97-2.57-12.67-9.55-16.44-15.31-6.53-9.98-.14-37.25,1.63-40.12,5.2-8.42,11.02-16.67,17.84-22.66,7.19-6.32,17.2-17.06,24.61-26.14-8.95-4.05-16.51-.83-24.65.72-2.12.4-31.52,5.57-28.12,9.82.06.06-1.63-2.35-2.41-1.96l-4.52,2.27c-.61.31-1.67,2.69-2.23,2.3l-3.28-2.34c16.54-9.72,44.23-14.34,64.26-16.23,1.39-6.35,10.86-6.46,13.49-9.72,8.5-10.57,18.13-21.09,24.68-32.61,8.98-15.77,7.76-36.3,14.11-53.36,1.67-4.5-.72-10.29,5.95-12.31l-13.43,62.13c6.23-4.64,11.19-8.54,17.59-12.75,2.05-1.35,5.49,5.19,4.08,6.92l-10.65,13.08,15.01-3.02c1.16-.23,4.76.53,5,1.56l1.11,4.83,3.64,4.19c.83.96-2.15,3.93-3.34,4.45l-23.47,10.05c4.11,2.42,17.18-6.66,20.2.04.68,1.5-1.08,5.42-2.74,6.13-14.16,6.02-27.93,12.28-40.62,21.51-1.7,1.24-2.27,6.84-1.71,8.69l32.76,12.24c6.88,2.57,12.57,4.82,19.4,8.23-39.94,12.1-59.3,48.68-87.94,77.5ZM600.44,188.48l-2.22-9.8-5.92,13.16,8.14-3.36ZM531.4,253.28c2.23,7.03,10.59,14.7,17.29,17.28s14.74-2.3,19.88-5.99c4.9-3.52,11.75-6.04,15.64-10.19,10.16-10.81,19.14-21.26,29.83-31.52,8.84-8.48,19.73-13.26,30.25-20.17l-41.49-14.61c-2.93,4.6-8.92,7.37-13.81,9.39l-15.78,32.26c-4.02,8.22-6.59,16.79-14.94,21.75-2.08,1.23-6.2,2.71-8.23,2.09-9.8-2.97-15.49-31.66-10.61-42.84-8.47,8.34-11.47,31.73-8.03,42.55Z"/>
  <path d="M478.51,626.52c-5.33-1-11.46-3.15-11.62-9.22,12.62,10.96,24.61,6.97,36.71-2.69,22.74-18.17,29.64-9.19,39.85-24.85,3.01,8.81-16.82,14.98-22.72,17.6-14.55,6.45-25.28,22.35-42.23,19.17Z"/>
  <path d="M642.31,272.89c-5.81,2.11,7.95-58.77,11.71-54.95l-11.71,54.95Z"/>
  <path d="M531.08,550.15c-1.96,8.63-15.9,47.63-27.6,36.46,15.5,1.71,15.39-28.71,27.6-36.46Z"/>
  <path d="M669.75,244.82c-4.76,8.87-6.79-27.76-5.88-28.12,5.1,9.05,4.27,18.56,5.88,28.12Z"/>
  <path d="M397.82,460.36c-8.21,3.03-40.03,3.43-40.22-10.48,5.87,3.88,11.08,8.1,17.55,8.54,7.58.52,15.4.33,22.57-1.54,20.39-5.31,37.4-16.93,59-20.16-19.56,9.35-38.93,16.26-58.89,23.63Z"/>
  <path d="M438.15,403.67c-6.13,8.11-33.49,19.75-26.56,30.85-19.28-2.94,21.09-33.11,26.56-30.85Z"/>
  <path d="M588.36,230.57c-1.37-2.27-1.54-4.08-1.98-6.64l-2.29-13.36c4.79,5.51,5.5,13.2,4.27,20Z"/>
</svg>