<?xml version="1.0" encoding="UTF-8"?>
<svg id="Layer_1" xmlns="http://www.w3.org/2000/svg" version="1.1" viewBox="0 0 1000 1000">
  <!-- Generator: Adobe Illustrator 30.1.0, SVG Export Plug-In . SVG Version: 2.1.1 Build 136)  -->
  <path d="M499.67,391.21c-9.74-4.06-19.15-7.48-29.45-8.79-15.65-1.99-31.41-1.96-46.49,1.91l-23.44,6.03c12.55-7.61,27.25-9.21,41.71-10.61,18.93-1.84,45.38,1.09,61.62,11.94l-1.52,1.24c-.42.35-1.75-1.43-2.44-1.72Z"/>
  <path d="M380.13,481.55c-19.49-8.57-25.56-11.31-45.69-14.39-10.26-1.57-20.85-2.13-30.83.04-2.98.65-5.42.99-9.44.88-1.4-.91,13.53-3.62,14.47-3.62,7.85.02,15.27-.38,23.02.39,14.81,1.48,25.91,4.57,40.08,10.57,3.35,1.42,6.12,3.79,8.4,6.13Z"/>
  <path d="M394.42,458.54c-.72,4.33-.2,4.67-2.04,6.67l-1.29-14.32c-1.22-13.53.99-25.54,1.48-39.89.1-2.86.19-5.77,3.18-7.63-1.4,7.07-.83,14.43-1.77,22.05l-.81,6.59-.23,25.89c1.32.58,1.73.76,1.49.66Z"/>
  <path d="M393.75,531.13c-3.95-10.3-.23-19.96-2.47-29.69-.21-.93-.35-2.09-.4-3.1l-.15-3.01c-.03-.63,1.49-1.38,1.81-1.47l1.21,12.96v24.31Z"/>
  <path d="M393.11,489.38c-.68,2.13-1.02,2.68-1.03.6-3.94-.9-4.07-3.84-3.22-6.26.58-1.66,3.98-3.98,5.54-2.83,2.89,2.14,2.14,7.06-1.28,8.49ZM390.17,487.05c.51,1.33,3.6.46,4-.85.28-.91-.24-2.32-1.14-3.97-2.22,1.18-3.61,2.88-2.86,4.82Z"/>
  <path d="M391.56,632.23c-2.11-11.16-1.69-22.56-1.47-34.99l.81-45.7c.01-.76.44-2.09.51-2.37.11-.41,1.41-.16,1.76.27-2.29,28.71-.06,52.74-1.62,82.79Z"/>
  <path d="M233.55,609.78c-.7.22-2.32,1.94-2.71,1.41-.41-.56-1.87-2.57-1.27-1.74l33.08-11.44,4.79-2.37c2.21-1.09,4.85-1.75,6.83-2.75l7.47-3.77.64-8.36c.03-.41-1.87-1.49-1.48-1.63s1.94-1.13,1.99-1.53l1.67-12.39,2.27-12.73-9.19,4.25c-7.98,3.69-9.33,7.31-13.14,5.56,7.57-4.54,14.87-8.49,23.4-12.23l3.24-8.47c.11-.29-.91-1.65-.6-1.74.44-.13,1.01-.27,1.32-.31s.76,1.6.63,2.01c-1.71,5.41-4.54,14.93-5.37,21.37-.33,2.51-.87,3.64-1.09,6.05l-1.42,15.31c-.86,9.27-1.03,18.56.16,27.9.6,4.72.72,9.55,1.92,14.23l2.7,10.5c-1.27-.82-2.95-3.35-3.26-4.87l-1.88-9.27c-2.85-14.02-2.21-17.09-2.46-31.78l-14.87,7.01c-9.22,4.35-18.94,7.38-28.74,10.39l-4.62,1.42Z"/>
  <path d="M286.94,518.07c-.5-.42-3.24-.6-3-.56-2.28-3.08-5.95-5.34-9.64-6.49-2.43-.76-4.3-4.89-7.94-2.84l1.38-2.78c14.33,6.22,20.35,11.61,31.94,20.37.43.32,1.08,1.3,1.28,1.68s-1.48,1.27-1.85.95l-12.17-10.34Z"/>
  <path d="M661.13,652.98c3.92-.64,8.07-.34,11.52-1.11l7.16-1.61c12.59-2.82,14.72-4.09,26.31-9.6,8.33,3.4,16.3,5.39,24.9,6.61,16.09,2.28,25.72,2.53,41.44-2.02,25.66-7.42,38.35-22.02,48.87-45.5,1.66-3.71,2.34-8.29,3.55-11.27,5.14-12.65,4.96-30.07,3.87-43.58-1-12.31-4.06-23.72-12.91-33.23l-6.91-7.42c-.15-.16-1.84.32-1.85.33,0,.03-.01-1.18-.02-1.79-.01-1.05-2.64-1.59-3.32-2.39-2.47-2.94-6.95-4.83-9.46-6.44-7.82-5.02-16.05-7.3-24.58-9.67-8.32-2.32-16.16-3.63-24.91-3.54l-17.43.18-1.7,4.83,5.31-.59c.88-.1,2.14-.43,2.44.08l1.44,2.42c-1.36-.26-2.43-.84-2.98-.48l-3.02,1.99-1.27-.85c-.33-.22-1.45.34-1.86.36-5.74.29-18.72,1.9-23.78,3.61l-5.27,1.79c-2.38.81-10.26,4.79-13.47,6.74l-.91-1.65,4.09-2.71-5.83-7.6-14.73,15.28c.7,2.55,1.51,7.3.25,9.34l-3.31,5.33,8.85,1.25c.99-1.41,1.72-2.62,1.46.08l12.91,3.49,12.6-12.15,1.67,2.1-3.76,3.77c-2.72,1.28-5.48,3.6-8.01,6.66,2.25,1.74,4.59,2.59,8.02,3.69,3.86-3.04,7.41-7.39,11.88-10.25,8-5.11,16.48-9.36,25.68-11.47,2.57-.59,4.29-.98,5.58-2.47l1.63,2.91-1.63,1.59c-.24.23-.68-.45-1.25-1.02-15.15,3.92-21.65,6.59-33.25,15.83-2.82,2.25-7.16,3.12-6.84,8.24l-6.6-2.48c-.42-.16-2.17,0-2.63.02s-.42-.67-.79-1.84l-11.04-2.94c-9.65-2.57-19.62-3.31-29.55-1.64-7.85,1.33-7.95.54-18.03,3.2-7.84,2.07-8.2,1.14-17.12,5.11-1.64.73-2.93,1.23-4.46,1.72l-6,1.94c-.41,1.35-.57.65-.78-1.05,16.16-7.87,33.24-11.59,51.42-14l.83-14.12-13.71-20.74c-.29-.44.38-1.82,1-2.39l14.55,22.27c1.89,5.32-2.95,15.79,2.15,15.42.77-.06,2.8-.67,3.13-1.34l4.24-8.69c-.53-1.81-1.78-5.32-.73-6.37,5.61-5.63,11.24-11.17,15.62-17.48-1.17-10.41,2.03-16.21,2.99-28.89.39-5.12.27-9.66,1.65-14.34.91,11.21-1.28,26.34-2.93,37.69-.76,5.25,1.98,11.65,6.25,14.6,1.32.63,5.08-1.16,5.27-2.22-.84-4.23-.75-8.62.32-12.9,3.25-12.98,6.95-25.49,8.61-38.73.26-2.09.38-7.33,1.48-11.69l-1.9,3.04c-.38.61-2.83.9-3.8.68l-33.33-7.45-25.69-5.53c-2.49-.54-5.48-.03-9.77-1.48,5.29,11.78,13.31,23.93,10.85,37.96-3.01,17.18-5.05,33.59-6.91,51.09-4.98,1.86,3.63-44.88,4.31-48.36,1.63-8.37.68-16.35-2.96-24.09-6.6-14.04-9.06-22.32-27.15-27.16,3.41-5.42,15.08,4.55,19.52,7.22,6.28,3.79,16.78,3.13,23.28,4.61l50.07,11.36c2.46-2.44,2.07-5.56,1.64-8.84l-1.47-11.28c-.17-1.31-2.3-3.89-3.39-4.67l-9.69-6.95c-.71-.51-1.49-2.57-1.18-3.33s2.48-1.49,3.28-1.29l8.84,2.28-10.61-10.87c-.61-.63-1.07-3.82-.3-4.04s1.97-.4,3.3-.59c.22-1.14.5-2.71.83-3.75.44-1.38,3.95-1.12,4.96-.41l3.41,2.43c-2.38-4.19-3.13-9.04,1.26-10.77,6.9,4.7,12.36,10.64,18.37,17.56l15.73-37.64-41.15-9.77c-10.26-2.43-20.02-4.2-30.48-5.87l-9.5,33.28-15.76,51.04c1.87-21.12,10.21-40,15.83-60.22l6.43-23.14c.15-.56-.69-2.45-.94-2.08-3.89,5.86-19.3,69.7-25.45,81.86,2.47-19.24,9.95-36.7,14.47-55.14,2.29-9.34,5.3-18.08,8.18-27.56l-20.53-7.61-44.68-16.68c-.86-.32-1.81-1.06-2.06-1.28-.42-.37.63-2.02,1.61-1.66l38.28,14.06,27.68,10.51c5.7-8.99,14.63-12.8,24.72-13.79,1.7-8.41,7.04-6.57,12.4-9.46.41-2.24.77-5.98,1.95-7.55,1.28-1.69,4.86-3.37,6.92-2.81,4.89,1.34,4.39,5.99,3.51,9.76l3.5,1.07c4.92,1.5-3.09,11.01-3.19,11.28-1.31,3.52-1.76,5.99-5.49,8.05,4.47,3.71,6.83,9.09,8.21,14.48l23.68,6.1c1.34.34,4.33,2.83,3.89,3.97l-15.41,39.33c7.58,9.95.95,25.09,1.65,43.48.13,3.44,2.76,6.87-.47,9.99l1.64,3.6,2.19,18.62c.56,4.78.9,9.11.92,14.16,16.7-2.31,32.7-.05,48.6,4.75,17.43,5.26,32.08,14.33,43.47,28.73,5.15,6.52,8.58,14.35,10.03,22.92,2.76,16.39,3.19,33.17-.93,49.34-7.62,29.91-25.02,54.71-55.63,62.76l4.67,6.57c.71,1-2.64,2.53-3.93,2.59l-13.34.58-69.4.51-39.32-.03-113.91-.1c-4.5,11.92.96,23.67-13.31,29.43-7.8,3.15-14.72,7.34-21.3,12.57-7.72,6.14-18.09,7.01-26.9,2.85-1.6-.76-3.19-2.67-3.37-4.26,9,5.97,20.01,6.66,28.57-.26,7.12-5.76,14.65-10.21,23.24-13.8,11.84-4.95,5.33-13.53,10.21-27.89l-3.9.14c-1.44.05,1.23-12.91-6.84-14.97-4.21-1.08-10.75,1.78-13.35,5.25l-13.83,18.46-17.46,18.21c-7.19,7.5-6.67,15.1-8.62,10.84.83-5.24,4.01-9.66,7.9-13.45,7.66-7.44,14.87-14.61,21.28-24.02l-157.95-.26h-12.46s-50.86.21-50.86.21l-54.86-.49c2.43-4.85,4.71-6.82,7.84-10.12-38.52-15.77-60.42-39.79-63.44-82.43-.88-12.41.23-24.26,5.92-35.41,6.51-12.75,15.3-24.6,27.09-32.93,14.84-10.49,47.3-16.1,65.82-12.01-5.14-19.08-2.65-38.67,5.76-56.48,5.72-12.12,15.16-21.17,25.56-29.39,20.65-16.31,50.73-22.46,76.62-16.33-1.07-.25,33.58,9.07,23.28,9.1-.36,0-.95,0-1.35-.09l-4.67-.93c-1.98-2.17-13.84-5.22-17.25-5.87l-5.71-1.09c-9.47-1.8-19.46-1.51-29.19-.19-10.21,1.38-19.86,5.05-28.87,9.43-5.35,2.6-9.55,6.35-14.21,9.86-2.35,1.77-4.2,4.23-6.24,6.14-9.46,8.84-16.96,18.72-20.44,31.55-3.22,11.86-4.9,23.92-2.72,36l1.54,8.54c28.86,6.28,52.47,14.86,71.33,38.81l17.85.61c.33.01,1.62-.42,1.61-.65-.03-.35.39.32,1,1.23,14.81,4.17,18.38,3.32,31.67,11.4l10.57-6.11,5.78-1.67c2.23-.65,3.38-1.1,5.83-2.3-.93-2.04-.49-1.08.2.43,4.52-.73,9.04-2.02,13.65-2.47l11.96-1.16c.19-1.94.61-1.25,1.34.21,9.22-.24,18.06,1.49,26.24,5.25,5.76-1.08,8.23-6.82,11.43-10.82,7.99-10.01,17-18.64,26.64-26.94l8.41-7.23-6.08.89c.88-1.02,2.81-3.03,4.06-3.23l6.89-1.09c3.35-3,6.69-5.95,10.22-8.61l9.96-7.51c.4-.3,2.24-.45,2.12,0s-.51,1.88-.97,2.23l-15.28,11.82-25.97,22.2c-5.85,5-10.86,10.21-16.04,16.64,11.01,1.58,19.24,4.87,28.43,8.95,15.05,6.68,28.13,14.81,39.55,28,12.02-24.74,19.1-47.68,32.02-71.69l1.43-.16c2.88-.32-12.17,26.59-12.81,31.36,8.39-5.84,28.57-19.04,34.13-24.94,7.16-7.61,8.29-19.94,18.37-26.05-22.2,39.65-12.03,23.63-40.14,45.2l-14.65,11.24c-1.42,1.24-2.54,5.58-2.91,6.9l2.32,4.3c9.27-1.55,20.13-.75,29.41,2.59.36.37.57,1.3.33,1.71-.41.7-2.71,1.91-2.23.3-9.03-3.57-19.03-3.96-29.35-2.28l-.7,10.74c-.51,1.65-.93,3.93-1.37,6.46l-4.24,24.38-2.3,13.95-1.84,13.46-1.73,9.46-1.79,9.2-1.75,9.02-1.42,5.79-9.75,9.58c-1.65,1.62-1.78,6.68-2.08,9.59l7.3.16c.71.02,1.74.56,2.38.63s1.97-.79,2.39-1.01c2.86,2.16,7.04.93,10.48.52,4.6-.54,9.46-.82,14.29-2.24,12.36-3.65,18.96-4.92,28.31-14.4,4.04,7.63,14.56,12.24,21.23,12.98,1.71.19,4.08,1.38,5.66,1.7,9.49,1.96,20.07,3.79,30.36,2.11ZM707.9,440.22c.4-2.74.9-5.35-.08-5.81s-3.02-1.25-3.5-1.33c-.23,2.49-.42,4.59-.17,5.76.24,1.08,3.36,2,3.74,1.38ZM720.89,434.44c-.64-1.03-3.95-1.06-4.69-.27-3.88,4.16-1.59,8.95-.06,9.01,1.82.07,4.28-1.29,5.06-2.54s.64-4.65-.31-6.19ZM712.76,434.4c-.41-.11-2.37,1.8-2.28,2.64l.51,4.76,1.77-7.4ZM472.87,591.47l8.43-13.43,12.24-20.49c1-1.68,1.37-3.25,1.29-4.92.32.2,2.36-1.7,1.56-2.29-4.49-3.36-12.28-1.38-15.33,4.76l-3.81,7.66c-4.54,9.12-.78,9.68-10.66,13.13-4.48,1.56-8.71,3.03-12.97,4.83l-15.74,6.68c-3.01,1.28-8,2.88-11.09,2.87l-17.28-.05-7.24-4.2c-2.29-1.33-4.93-3.24-5.16-5.17-.97-8.02,10.68-16.38,17.74-19.23,9.11-3.67,17.11-8.57,25.53-13.67l9.38-5.68c6.24-3.78,11.25-7.79,16.94-13.6-11.45-5.46-28.53-5.13-39.9-3.14l-5.08.89c-3.82.67-7.88,1.6-11.53,2.91l-6.96,2.5c-3.71,1.33-6.87,3.25-9.27,6.25-2.43,1.01-4.83-2.5-7.26-3.74-11.87-6.07-28.48-9.6-41.79-9.86-13.44-.27-26.39.34-39.19,5.39-2.69,1.06-5.3,3.34-8.77,2.32,6.64-5.27,14.95-6.51,22.87-8.58l-3.64-7.27c2.88,1.82,4.17,3.55,6.1,6.35l14.96-.37c-6.06-7.77-12.76-13.5-20.24-19.1-1.41,2.23-1.42,1.22-1.75-.67-10.89-6.75-22.07-10.77-34.28-14.05-15.41-4.13-31.48-5.61-47.35-2.25-1.86.39-3.1.99-5.36.89l-2.42,1.91c-3.44-1.4-6.93.7-9.86,1.56-7.93,2.34-13.86,6.64-19.71,11.95-10.2,9.26-18.22,20.65-22.9,33.67-1.72,4.8-2.27,9.62-2.47,14.48-.1,2.45-1.31,5.69.59,8.03-.38.65-1.05,1.68-.83,2.16l.63,1.36c-1.01,9.43,2.47,24.38,6.75,33.66l2.78,6.03c2.82,6.12,6.97,10.67,11.36,15.6,6.32,7.11,14,12.53,22.19,17.7,1.5.95,3.97,1.62,5.21,2.36,9.92,5.9,16.59,9.46,28.93,9.6l6.15.07c12.72.14,25.52-1.08,38.14-4.45,4.02,4.3,9.2,4.96,13.9,6.65,12.25,4.41,24.49,5.8,37.13,4.87,19.56-1.44,7.11-.64,19.69-3.25,8.99-1.87,19.06-3.97,25.81-10.94,2.84-2.93,5.71-1,8.39,1.41,6.13,5.51,12.82,6.21,19.28,8.25,9.43,2.97,19.37,2.27,28.6,3.1,4.69.42,9.03.84,13.54-.06l17.71-3.55c6.4-1.28,12.18-3.86,17.45-7.34-3.08-1.7-5.52-2.73-7.51-4.13l-10.81-7.6c-2.42-1.7-5.09-5.79-7.18-7.7-.52.07-2.32.49-2.04.27,2.3-1.88-4.48-7.65-4.55-14l10.67-17.34ZM501.44,536.93l14.02-7.99c-10.2-5.66-19.74-9.64-30.9-10.82-.75-.08-2.37-.05-2.38.54l-.06,2.08c8.98.59,17.08,6.58,19.32,16.2ZM499.11,614.85c13.09,3.81,25.99,7.07,38.59,12.3,3.65,1.52,6.92,2.78,11.07,4.04l5.87-31.3,5.52-32.79c2.18-12.94,4.49-24.95,5.34-38.59l-12.34,26.68-51.97-3.98-20.25,32.93-14.53,23.11c11.35,1.91,21.82,4.44,32.7,7.61ZM515.24,550.39l33.18,2.24c-8.1-9.76-17.93-16.48-29.42-22.47-9.27,4.86-17.59,9.67-26.56,16.08,7.46,2.17,14.54,3.59,22.8,4.15ZM439.08,584.38l17.82-7.39c4.91-2.04,10.49-3.68,15.1-5.96l5.07-13.28c-13.9,3.17.45-11.67-12.04-15.7-2.37-.76-6.23-1.39-8.58-1.39l-15.5,9.7c-7.97,4.99-15.59,9.54-24.36,13.11-6.6,2.69-12.18,7.08-16.21,12.81-5.66,8.05,19.5,16.05,38.71,8.09ZM508.27,645.71l11.25-22.45c-5.31-1.17-53.86-16.29-53.71-12.16.03.75.35,2.59.85,3.3,10,14.34,26.54,25.03,41.62,31.3ZM547.5,633.45l-4.18-1.42-1.32,6.47,5.5-5.06Z"/>
  <path d="M604.89,629.08c-3.54-3.04-.59-6.96-.39-10.3l1.16-20.15c.35-6.1.36-17.16.09-23.2l-.99-21.76c-.06-1.24-1.17-3.85-1.38-4.89l-.83-2.43c-.25-.74,2.32-1.77,2.78-1.37-1.53,2.08.94,3.95,1.04,5.54l1.58,24.07c.53,8.05.8,16.11.12,24.09l-1.65,19.38-1.54,11.01Z"/>
  <path d="M465.69,478.4c-16.33-1.99-38.15-1.39-54.05,1.74-2.67.52-4.95,2.21-8.06.51l9.05-2.39c12.91-3.41,42.81-3.24,56.51-1.63,7.1.84,14.19.91,20.34,4.66l-23.8-2.89Z"/>
  <rect x="467.97" y="431.17" width="68.51" height="2.32" transform="translate(68.76 933.59) rotate(-89.87)"/>
  <path d="M714.88,612.71c8.08,8.08,19.61,13.57,28.88,16.05l11.42,3.06c-2.18,2.05-4.95,1.53-7.62.75-13.65-3.97-22.31-7.44-33.45-17.85l-4.43,15.36c.14,1.05.21,1.92-.08,2.33-.6.86-1.92,1.26-3.3.57,5.89-15.33,8.31-30.8,7.65-46.86-.23-5.5-.21-10.42-1.17-15.73l-1.58-8.69c-.07-.37-1.86-1.24-2.24-1.2,3.57-.41-1.91-8.33-1.24-13.22,5.1,4.04-1.99,3.73,8.01,8.62l6.8,3.32c15.31,7.48,16.87,2.65,22.11,8.94-11.55-1.92-22.03-6.44-32.58-11.67l1.15,3.57,1.68,10.35c2.08,12.79,1,25.22.24,37.93l-.26,4.37Z"/>
  <path d="M733.29,599.15c5.49,3.21,10.64,5.01,16.65,7.83-1.61,2.23-13.06-3.55-14.47-4.25-8.71-4.29-8.42-6.79-13.07-6.68,0,0,.91-1.2,1.27-1.68s1.35-.05,2.18.44l7.44,4.35Z"/>
  <path d="M502.84,489.52l-5.76-5.64c.81-1.62,3.28-3,4.82-3.21,2.18-.3,5.39,2.05,4.13,4.44-.65,1.15-2.09,2.89-3.2,4.4ZM504.2,484.26c0-1.16-.94-2.11-2.11-2.11s-2.11.94-2.11,2.11.94,2.11,2.11,2.11,2.11-.94,2.11-2.11Z"/>
  <path d="M688.91,469.1c1.07-4.68,4.14-9.26,8.94-12.42-2.41,4.34-5.07,8.26-8.94,12.42Z"/>
  <path d="M545.13,461.46c-5.11-1.67,5.54-7.21,5-9.93-6.45,2.77-12.14,7.15-18.59,4.37-4.1-1.76-8.69-6.55-11.28-10.5-4.48-6.85-.09-25.56,1.12-27.52,3.57-5.78,7.56-11.44,12.24-15.55,4.93-4.34,11.8-11.7,16.88-17.93-6.14-2.78-11.33-.57-16.91.49-1.45.28-21.63,3.82-19.29,6.74.04.04-1.12-1.61-1.65-1.35l-3.1,1.56c-.42.21-1.15,1.85-1.53,1.58l-2.25-1.61c11.35-6.67,30.34-9.84,44.09-11.14.95-4.35,7.45-4.43,9.25-6.67,5.83-7.25,12.43-14.47,16.93-22.37,6.16-10.82,5.32-24.9,9.68-36.61,1.15-3.09-.49-7.06,4.08-8.44l-9.21,42.62c4.27-3.18,7.67-5.86,12.07-8.74,1.41-.92,3.76,3.56,2.8,4.75l-7.31,8.97,10.3-2.07c.8-.16,3.27.36,3.43,1.07l.76,3.31,2.5,2.88c.57.66-1.47,2.7-2.29,3.05l-16.1,6.9c2.82,1.66,11.79-4.57,13.86.03.46,1.03-.74,3.72-1.88,4.2-9.72,4.13-19.16,8.42-27.87,14.76-1.17.85-1.56,4.7-1.17,5.96l22.48,8.4c4.72,1.76,8.62,3.31,13.31,5.65-27.4,8.3-40.68,33.39-60.33,53.17ZM568.91,397.78l-1.52-6.72-4.06,9.03,5.58-2.3ZM521.54,442.24c1.53,4.82,7.27,10.08,11.86,11.85s10.11-1.58,13.64-4.11c3.36-2.41,8.06-4.14,10.73-6.99,6.97-7.41,13.13-14.58,20.47-21.63,6.06-5.82,13.54-9.1,20.75-13.84l-28.47-10.02c-2.01,3.15-6.12,5.05-9.47,6.44l-10.83,22.13c-2.76,5.64-4.52,11.52-10.25,14.92-1.43.85-4.25,1.86-5.65,1.43-6.72-2.04-10.63-21.72-7.28-29.39-5.81,5.72-7.87,21.77-5.51,29.19Z"/>
  <path d="M485.26,698.29c-3.66-.69-7.86-2.16-7.97-6.33,8.66,7.52,16.89,4.78,25.18-1.85,15.6-12.46,20.33-6.3,27.34-17.05,2.06,6.04-11.54,10.28-15.59,12.07-9.98,4.42-17.34,15.33-28.97,13.15Z"/>
  <path d="M597.63,455.69c-3.99,1.45,5.46-40.32,8.03-37.69l-8.03,37.69Z"/>
  <path d="M521.32,645.9c-1.35,5.92-10.91,32.68-18.94,25.02,10.64,1.18,10.56-19.7,18.94-25.02Z"/>
  <path d="M616.46,436.43c-3.26,6.08-4.66-19.05-4.04-19.29,3.5,6.21,2.93,12.73,4.04,19.29Z"/>
  <path d="M429.9,584.3c-5.63,2.08-27.46,2.35-27.59-7.19,4.03,2.66,7.6,5.56,12.04,5.86,5.2.36,10.56.23,15.49-1.06,13.99-3.65,25.66-11.61,40.48-13.83-13.42,6.41-26.71,11.15-40.4,16.21Z"/>
  <path d="M457.57,545.41c-4.2,5.56-22.97,13.55-18.22,21.17-13.22-2.02,14.47-22.71,18.22-21.17Z"/>
  <path d="M560.62,426.66c-.94-1.56-1.06-2.8-1.36-4.55l-1.57-9.17c3.29,3.78,3.77,9.06,2.93,13.72Z"/>
</svg>