<?xml version="1.0" encoding="UTF-8" standalone="no"?>
<!DOCTYPE svg PUBLIC "-//W3C//DTD SVG 1.1//EN" "http://www.w3.org/Graphics/SVG/1.1/DTD/svg11.dtd">
<svg width="100%" height="100%" viewBox="0 0 1412 803" version="1.1" xmlns="http://www.w3.org/2000/svg" xmlns:xlink="http://www.w3.org/1999/xlink" xml:space="preserve" xmlns:serif="http://www.serif.com/" style="fill-rule:evenodd;clip-rule:evenodd;stroke-linejoin:round;stroke-miterlimit:2;">
    <g transform="matrix(1.26396,0,0,1.26396,-43828.356098,2346.658738)">
        <g transform="matrix(0.762289,0,0,0.762289,26692.985951,-2479.911499)">
            <path d="M10497.167,1372.313C10496.643,1371.364 10496.523,1370.233 10496.852,1369.183C10505.762,1340.651 10548.726,1201.783 10562.877,1132.2C10574.266,1076.197 10579.692,1010.752 10585.763,947.893L10548.392,947.668C10545.61,947.652 10543.007,946.294 10541.401,944.021C10539.795,941.749 10539.385,938.841 10540.298,936.213C10544.259,924.798 10550.395,907.211 10554.803,895.032C10562.491,873.793 10567.043,861.613 10571.019,850.828C10572.742,846.144 10577.621,842.98 10583.121,842.98L10683.047,842.98C10683.047,842.98 10844.866,840.126 10890.038,852.451C10923.985,861.714 10962.379,880.925 10986.082,931.306C10997.648,955.891 10997.42,983.151 10989.847,1009.443L10996.235,1012.365C11017.271,1004.358 11051.205,1010.468 11063.334,1013.077C11064.466,1013.332 11065.432,1014.066 11065.98,1015.088C11066.236,1015.566 11066.389,1016.084 11066.438,1016.611L11067.755,1016.235L11149.083,1073.563C11149.083,1073.563 11101.608,1179.872 11093.916,1254.047C11142.993,1198.822 11199.029,1018.875 11227.949,995.683C11242.027,984.394 11277.866,979.733 11298.028,994.445C11298.028,994.445 11382.679,1030.865 11372.859,1089.401C11372.506,1091.507 11372.157,1093.593 11371.812,1095.658C11372.982,1092.946 11374.138,1090.338 11375.277,1087.842C11401.812,1029.734 11427.288,1015.953 11447.709,1004.348C11472.576,990.218 11507.13,981.379 11537.221,986.481C11578.707,993.514 11626.699,1032.439 11626.699,1032.439C11626.699,1032.439 11641.433,1017.29 11658.73,1004.348C11689.238,981.521 11771.299,966.559 11816.684,1020.899C11817.265,1020.774 11817.571,1020.711 11817.571,1020.711C11817.571,1020.711 11886.568,1102.378 11910.789,1136.974C11912.336,1139.816 11912.465,1143.218 11911.137,1146.169C11909.81,1149.121 11907.179,1151.281 11904.026,1152.009C11881.932,1157.07 11860.657,1160.93 11843.881,1163.666C11839.203,1164.417 11834.61,1161.905 11832.719,1157.561C11830.063,1151.418 11827.136,1146.041 11824.215,1143.285C11814.74,1134.346 11797.623,1132.285 11785.958,1135.312C11774.293,1138.338 11759.843,1151.113 11754.226,1161.445C11750.102,1169.029 11747.309,1177.69 11745.351,1186.798C11764.013,1184.246 11782.364,1181.663 11796.906,1179.594C11804.421,1178.537 11812.026,1180.788 11817.753,1185.767C11823.481,1190.745 11826.77,1197.962 11826.77,1205.551L11826.771,1217.972C11838.079,1212.788 11845.631,1209.08 11845.631,1209.08C11845.631,1209.08 11873.433,1234.982 11879.161,1239.961C11884.889,1244.939 11888.178,1252.155 11888.178,1259.744L11888.179,1306.606C11888.179,1319.56 11878.716,1330.572 11865.908,1332.521L11732.614,1352.801C11716.548,1463.142 11705.47,1579.199 11696.08,1603.723C11680.13,1645.381 11567.648,1614.031 11567.648,1614.031L11500.323,1564.96C11500.323,1564.96 11503.138,1560.712 11507.789,1553.33C11506.628,1552.101 11505.579,1550.833 11504.654,1549.53C11495.235,1536.253 11505.423,1465.668 11518.943,1385.686C11511.239,1387.329 11503.499,1389.074 11495.669,1390.933C11475.444,1486.075 11456.924,1584.615 11450.435,1603.723C11436.685,1644.215 11306.233,1614.031 11306.233,1614.031L11250.813,1555.722C11248.379,1553.897 11246.538,1551.992 11245.409,1550.037C11245.312,1549.868 11245.22,1549.699 11245.133,1549.53C11238.175,1535.931 11256.213,1480.785 11272.119,1427.035C11262.12,1425.209 11251.579,1421.269 11240.507,1414.394C11226.945,1405.974 11215.986,1387.261 11209.217,1372.553C11203.378,1371.369 11197.356,1369.458 11191.153,1366.66C11163.292,1399.324 11088.051,1470.015 11010.399,1419.607C11007.89,1417.978 11005.511,1416.239 11003.259,1414.394C10977.661,1417.297 10949.038,1420.836 10929.442,1420.836C10899.846,1420.836 10789.844,1416.573 10759.894,1347.989C10754.425,1345.748 10749.072,1343.241 10743.92,1340.435C10720.17,1390.09 10703.632,1425.16 10703.632,1425.16C10703.342,1427.121 10701.658,1428.573 10699.676,1428.573L10562.076,1428.573C10561.784,1428.573 10496.669,1372.884 10496.669,1372.884C10496.669,1372.884 10496.839,1372.69 10497.167,1372.313ZM11146.526,1315.507C11142.951,1307.382 11140.799,1300.895 11140.372,1298.774C11138.179,1302.172 11130.968,1311.767 11119.937,1323.325C11122.772,1323.969 11125.865,1324.304 11129.23,1324.304C11134.466,1324.304 11140.286,1321.168 11146.526,1315.507ZM11558.072,1153.717C11555.882,1156.801 11553.985,1160.06 11552.409,1163.4C11546.02,1176.938 11541.04,1191.51 11535.128,1212.736C11539.686,1212.154 11544.241,1211.576 11548.789,1211.001C11551.567,1195.144 11555.54,1173.677 11558.072,1153.717ZM10909.02,1232.817C10896.71,1245.433 10886.367,1257.541 10879.664,1268.708C10888.026,1269.009 10897.13,1268.785 10906.994,1268.513C10906.881,1256.959 10907.616,1244.981 10909.02,1232.817Z"/>
            <path d="M11825.047,1029.608L11836.668,1004.577C11836.668,1004.577 11906.68,1087.514 11931.269,1122.636C11931.807,1123.404 11932.3,1124.201 11932.748,1125.024C11938.03,1134.731 11938.47,1146.348 11933.937,1156.426C11929.403,1166.503 11920.419,1173.881 11909.652,1176.368L11909.607,1176.378C11890.771,1180.692 11872.516,1184.159 11857.007,1186.817C11859.038,1187.855 11860.947,1189.182 11862.672,1190.789C11862.672,1190.789 11889.942,1216.207 11895.561,1221.092C11906.752,1230.818 11913.178,1244.917 11913.178,1259.744L11913.179,1306.606C11913.179,1331.915 11894.69,1353.429 11869.669,1357.236L11754.729,1374.724C11739.658,1481.669 11728.501,1588.962 11719.427,1612.663C11711.63,1633.028 11691.482,1645.565 11664.566,1649.107C11621.939,1654.717 11560.936,1638.114 11560.936,1638.114C11558.054,1637.31 11555.34,1635.997 11552.923,1634.235L11485.597,1585.163C11484.115,1584.083 11482.785,1582.868 11481.613,1581.549C11478.394,1596.125 11475.828,1606.696 11474.107,1611.762C11467.403,1631.505 11446.114,1645.146 11416.115,1648.639C11369.624,1654.052 11300.598,1638.388 11300.598,1638.388C11295.827,1637.284 11291.486,1634.804 11288.113,1631.255L11233.918,1574.235C11229.358,1570.487 11226.025,1566.464 11223.758,1562.535C11223.447,1561.997 11223.154,1561.458 11222.877,1560.917C11219.342,1554.008 11217.363,1540.858 11220.207,1523.246C11223.438,1503.237 11232.039,1473.939 11241.225,1443.163C11236.663,1441.05 11232.027,1438.556 11227.32,1435.633C11214.823,1427.874 11203.575,1413.628 11195.041,1399.247C11178.824,1415.492 11156.396,1434.203 11130.32,1446.797C11091.13,1465.726 11044.338,1471.445 10996.787,1440.577L10996.417,1440.335C10972.521,1443.056 10947.348,1445.836 10929.442,1445.836C10910.145,1445.836 10859.424,1443.973 10814.879,1426.54C10790.262,1416.906 10767.695,1402.581 10751.63,1382.318C10738.813,1409.226 10729.819,1428.251 10727.104,1434.001C10723.151,1445.526 10712.242,1453.573 10699.676,1453.573L10562.076,1453.573C10561.845,1453.573 10553.557,1454.09 10544.113,1446.173C10533.319,1437.124 10480.42,1391.883 10480.42,1391.883C10484.948,1395.755 10490.71,1397.884 10496.669,1397.884L10478.203,1357.09L10475.285,1384.403C10471.48,1377.515 10470.611,1369.316 10472.988,1361.731C10481.806,1333.495 10524.374,1196.079 10538.378,1127.217C10547.97,1080.052 10553.225,1026.089 10558.284,972.728L10548.242,972.668C10537.394,972.603 10527.244,967.308 10520.984,958.448C10514.724,949.588 10513.122,938.253 10516.68,928.018C10520.671,916.516 10526.854,898.795 10531.295,886.524C10539.007,865.217 10543.574,853 10547.556,842.198C10552.695,828.225 10566.715,817.98 10583.121,817.98L10682.883,817.98C10690.447,817.879 10851.013,815.889 10896.619,828.333C10936.288,839.157 10981.004,861.79 11008.703,920.663C11018.131,940.704 11021.408,962.182 11019.813,983.8C11039.547,983.45 11059.325,986.643 11068.592,988.636L11068.82,988.686C11074.053,989.863 11078.796,992.453 11082.578,996.096L11163.487,1053.129C11164.477,1053.827 11165.403,1054.587 11166.263,1055.399C11168.478,1050.386 11170.656,1045.528 11172.793,1040.864C11187.675,1008.391 11202.091,984.374 11212.309,976.18C11222.47,968.032 11240.204,961.417 11259.317,960.352C11277.35,959.348 11296.19,963.233 11310.437,972.635C11318.943,976.64 11347.197,990.928 11368.776,1013.355C11373.197,1017.95 11377.318,1022.858 11381.002,1028.057C11400.847,1001.65 11419.51,991.618 11435.358,982.613C11464.796,965.884 11505.776,955.792 11541.4,961.832C11571.47,966.93 11604.695,986.675 11624.555,1000.098C11630.115,995.156 11636.741,989.578 11643.752,984.331C11662.193,970.533 11696.024,958.446 11732.294,958.686C11769.124,958.93 11808.014,971.519 11835.872,1004.873L11812.596,996.853L11814.824,1018.733C11769.091,966.965 11688.826,981.829 11658.73,1004.348C11641.433,1017.29 11626.699,1032.439 11626.699,1032.439C11626.699,1032.439 11578.707,993.514 11537.221,986.481C11507.13,981.379 11472.576,990.218 11447.709,1004.348C11427.288,1015.953 11401.812,1029.734 11375.277,1087.842C11374.138,1090.338 11372.982,1092.946 11371.812,1095.658L11372.859,1089.401C11382.679,1030.865 11298.028,994.445 11298.028,994.445C11277.866,979.733 11242.027,984.394 11227.949,995.683C11199.029,1018.875 11142.993,1198.822 11093.916,1254.047C11101.608,1179.872 11149.083,1073.563 11149.083,1073.563L11067.755,1016.235L11066.438,1016.611C11066.389,1016.084 11066.236,1015.566 11065.98,1015.088C11065.432,1014.066 11064.466,1013.332 11063.334,1013.077C11051.205,1010.468 11017.271,1004.358 10996.235,1012.365L10989.847,1009.443C10997.42,983.151 10997.648,955.891 10986.082,931.306C10962.379,880.925 10923.985,861.714 10890.038,852.451C10844.866,840.126 10683.047,842.98 10683.047,842.98L10583.121,842.98C10577.621,842.98 10572.742,846.144 10571.019,850.828C10567.043,861.613 10562.491,873.793 10554.803,895.032C10550.395,907.211 10544.259,924.798 10540.298,936.213C10539.385,938.841 10539.795,941.749 10541.401,944.021C10543.007,946.294 10545.61,947.652 10548.392,947.668L10585.763,947.893C10579.692,1010.752 10574.266,1076.197 10562.877,1132.2C10548.726,1201.783 10505.762,1340.651 10496.852,1369.183C10496.523,1370.233 10496.643,1371.364 10497.167,1372.313L10496.669,1372.884C10496.669,1372.884 10561.784,1428.573 10562.076,1428.573L10699.676,1428.573C10701.658,1428.573 10703.342,1427.121 10703.632,1425.16C10703.632,1425.16 10720.17,1390.09 10743.92,1340.435C10749.072,1343.241 10754.425,1345.748 10759.894,1347.989C10789.844,1416.573 10899.846,1420.836 10929.442,1420.836C10949.038,1420.836 10977.661,1417.297 11003.259,1414.394C11005.511,1416.239 11007.89,1417.978 11010.399,1419.607C11088.051,1470.015 11163.292,1399.324 11191.153,1366.66C11197.356,1369.458 11203.378,1371.369 11209.217,1372.553C11215.986,1387.261 11226.945,1405.974 11240.507,1414.394C11251.579,1421.269 11262.12,1425.209 11272.119,1427.035C11256.213,1480.785 11238.175,1535.931 11245.133,1549.53C11245.22,1549.699 11245.312,1549.868 11245.409,1550.037C11246.538,1551.992 11248.379,1553.897 11250.813,1555.722L11306.233,1614.031C11306.233,1614.031 11436.685,1644.215 11450.435,1603.723C11456.924,1584.615 11475.444,1486.075 11495.669,1390.933C11503.499,1389.074 11511.239,1387.329 11518.943,1385.686C11505.423,1465.668 11495.235,1536.253 11504.654,1549.53C11505.579,1550.833 11506.628,1552.101 11507.789,1553.33C11503.138,1560.712 11500.323,1564.96 11500.323,1564.96L11567.648,1614.031C11567.648,1614.031 11680.13,1645.381 11696.08,1603.723C11705.47,1579.199 11716.548,1463.142 11732.614,1352.801L11865.908,1332.521C11878.716,1330.572 11888.179,1319.56 11888.179,1306.606L11888.178,1259.744C11888.178,1252.155 11884.889,1244.939 11879.161,1239.961C11873.433,1234.982 11845.631,1209.08 11845.631,1209.08C11845.631,1209.08 11838.079,1212.788 11826.771,1217.972L11826.77,1205.551C11826.77,1197.962 11823.481,1190.745 11817.753,1185.767C11812.026,1180.788 11804.421,1178.537 11796.906,1179.594C11782.364,1181.663 11764.013,1184.246 11745.351,1186.798C11747.309,1177.69 11750.102,1169.029 11754.226,1161.445C11759.843,1151.113 11774.293,1138.338 11785.958,1135.312C11797.623,1132.285 11814.74,1134.346 11824.215,1143.285C11827.136,1146.041 11830.063,1151.418 11832.719,1157.561C11834.61,1161.905 11839.203,1164.417 11843.881,1163.666C11860.657,1160.93 11881.932,1157.07 11904.026,1152.009C11907.179,1151.281 11909.81,1149.121 11911.137,1146.169C11912.465,1143.218 11912.336,1139.816 11910.789,1136.974C11891.45,1109.35 11843.563,1051.717 11825.047,1029.608ZM11146.526,1315.507C11140.286,1321.168 11134.466,1324.304 11129.23,1324.304C11125.865,1324.304 11122.772,1323.969 11119.937,1323.325C11130.968,1311.767 11138.179,1302.172 11140.372,1298.774C11140.799,1300.895 11142.951,1307.382 11146.526,1315.507ZM11558.072,1153.717C11555.54,1173.677 11551.567,1195.144 11548.789,1211.001C11544.241,1211.576 11539.686,1212.154 11535.128,1212.736C11541.04,1191.51 11546.02,1176.938 11552.409,1163.4C11553.985,1160.06 11555.882,1156.801 11558.072,1153.717ZM10909.02,1232.817C10907.616,1244.981 10906.881,1256.959 10906.994,1268.513C10897.13,1268.785 10888.026,1269.009 10879.664,1268.708C10886.367,1257.541 10896.71,1245.433 10909.02,1232.817Z"/>
        </g>
        <g transform="matrix(0.762289,0,0,0.762289,26646.175766,-2521.222859)">
            <path d="M11843.881,1163.666C11839.203,1164.417 11834.61,1161.905 11832.719,1157.561C11830.063,1151.418 11827.136,1146.041 11824.215,1143.285C11814.74,1134.346 11797.623,1132.285 11785.958,1135.312C11774.293,1138.338 11759.843,1151.113 11754.226,1161.445C11740.502,1186.686 11741.511,1223.854 11739.043,1249.714C11770.052,1246.192 11824.487,1238.6 11858.314,1233.788C11865.829,1232.73 11873.433,1234.982 11879.161,1239.961C11884.889,1244.939 11888.178,1252.155 11888.178,1259.744L11888.179,1306.606C11888.179,1319.56 11878.716,1330.572 11865.908,1332.521L11732.614,1352.801C11716.548,1463.142 11705.47,1579.199 11696.08,1603.723C11680.13,1645.381 11588.049,1634.715 11566.061,1603.723C11554.06,1586.807 11573.889,1476.859 11591.885,1372.977C11558.767,1377.514 11527.99,1383.261 11495.669,1390.933C11475.444,1486.075 11456.924,1584.615 11450.435,1603.723C11436.685,1644.215 11318.701,1627.489 11306.54,1603.723C11295.963,1583.052 11343.143,1466.385 11352.795,1404.544C11349.643,1406.885 11346.495,1408.92 11343.4,1410.531C11317.24,1424.146 11282.735,1440.613 11240.507,1414.394C11218.246,1400.573 11202.998,1359.019 11201.78,1352.967C11192.979,1366.6 11103.419,1479.991 11010.399,1419.607C11007.89,1417.978 11005.511,1416.239 11003.259,1414.394C10977.661,1417.297 10949.038,1420.836 10929.442,1420.836C10892.981,1420.836 10734.49,1414.366 10753.977,1289.137C10760.687,1246.016 10772.961,1227.319 10784.747,1209.08C10827.835,1142.401 10859.641,1137.646 10913.125,1086.633C10951.803,1049.741 10933.759,1027.407 10911.246,1014.078C10900.486,1007.707 10867.717,1003.932 10845.422,1002.087C10821.275,1000.089 10766.359,1002.087 10766.359,1002.087L10703.632,1425.16C10703.342,1427.121 10701.658,1428.573 10699.676,1428.573L10562.076,1428.573C10560.803,1428.573 10559.606,1427.967 10558.852,1426.941C10558.099,1425.915 10557.879,1424.592 10558.259,1423.377C10567.169,1394.845 10610.133,1255.976 10624.284,1186.394C10635.674,1130.391 10641.099,1064.945 10647.17,1002.087L10609.8,1001.862C10607.017,1001.846 10604.414,1000.487 10602.808,998.215C10601.203,995.943 10600.792,993.035 10601.706,990.407C10605.666,978.992 10611.802,961.405 10616.21,949.226C10623.898,927.987 10628.45,915.807 10632.426,905.022C10634.149,900.338 10639.029,897.174 10644.529,897.174L10744.454,897.174C10744.454,897.174 10906.274,894.32 10951.446,906.645C10985.392,915.908 11023.786,935.119 11047.489,985.5C11060.211,1012.541 11058.664,1042.819 11048.77,1071.484C11067.405,1056.532 11110.694,1064.249 11124.741,1067.271C11125.873,1067.525 11126.839,1068.259 11127.387,1069.282C11127.936,1070.305 11128.013,1071.515 11127.598,1072.599C11115.079,1106.115 11037.109,1324.304 11129.23,1324.304C11182.93,1324.304 11255.132,1077.323 11289.357,1049.877C11310.791,1032.688 11382.679,1030.865 11372.859,1089.401C11339.308,1289.406 11343.4,1299.433 11367.371,1300.057C11375.583,1300.271 11383.499,1291.956 11386.009,1283.931C11402.643,1230.809 11421.187,1175.975 11436.685,1142.036C11463.22,1083.928 11488.696,1070.147 11509.117,1058.542C11533.983,1044.411 11568.537,1035.572 11598.629,1040.674C11640.114,1047.708 11688.106,1086.633 11688.106,1086.633C11688.106,1086.633 11702.84,1071.484 11720.137,1058.542C11753.072,1033.899 11846.083,1018.423 11888.178,1089.401C11892.954,1097.455 11903.331,1118.268 11912.489,1137.014C11913.882,1139.854 11913.904,1143.174 11912.548,1146.032C11911.192,1148.891 11908.606,1150.974 11905.525,1151.692C11882.893,1156.895 11861.035,1160.868 11843.881,1163.666ZM11518.485,1277.215C11548.422,1273.134 11579.47,1269.076 11610.197,1265.195C11615.433,1235.308 11624.911,1185.494 11620.997,1163.4C11618.319,1148.281 11601.219,1128.547 11586.714,1132.632C11571.061,1137.041 11558.964,1149.509 11552.409,1163.4C11541.037,1187.497 11534.129,1214.868 11518.485,1277.215ZM10968.402,1322.707C10967.776,1259.029 10992.933,1182.491 11013.758,1132.632C11009.002,1138.394 11004.013,1143.829 10998.883,1148.865C10946.068,1200.705 10866.729,1259.378 10871.63,1296.285C10873.122,1307.522 10893.125,1318.301 10931.31,1322.25C10942.21,1323.377 10954.556,1323.088 10968.402,1322.707Z" style="fill:white;"/>
        </g>
    </g>
</svg>
